<svg viewBox="0 0 500 500" xmlns="http://www.w3.org/2000/svg"><defs><clipPath id="a"><path d="M0 0h500v500H0Z"/></clipPath></defs><path clip-path="url(#a)" d="M190.556.36c35.25-2.44 74.816 7.58 105.763 24.31 45.41 24.84 79.29 66.56 94.36 116.18 13.55 45.85 11.63 94.68-7.78 138.54 -6.06 13.69-18.24 25.32-13.32 41.14 1.25 3.95 3.42 7.56 6.31 10.53 11.98 12.17 25.3 4.05 38.96 12.08 8.73 5.13 15.55 12.97 22.65 20.11l23.16 23.19 16.56 16.5c3.73 3.72 8.22 7.99 11.44 12.03 4.2 5.18 7.36 11.13 9.29 17.53 2.51 8.15 2.58 18.68.59 27.11 -8.63 36.625-53.25 52.74-82.94 29.39 -7.45-5.86-13.95-13.26-20.77-20.04 -9.137-8.95-18.22-17.96-27.24-27.04 -15.59-16.11-28.67-23.27-27.87-48.38 .64-18.75-22.67-32.57-38.05-23.15 -72.13 44.15-172.75 36.88-236.71-22.58C-65.55 226.5 12.6 11.94 190.46.24Zm21.36 331.77c72.68-6.51 126.327-70.87 119.803-143.73 -6.53-72.858-70.76-126.61-143.427-120.04 -72.626 6.57-126.2 70.9-119.68 143.71 6.52 72.8 70.66 126.54 143.3 120.04Z"/></svg>