<svg viewBox="0 0 500 500" xmlns="http://www.w3.org/2000/svg"><defs><clipPath id="a"><path d="M0 0h500v500H0Z"/></clipPath></defs><g clip-path="url(#a)"><path fill="#820EFF" d="M121.99 0h255.97c67.37 0 121.99 54.61 121.99 121.99v255.97c0 67.37-54.62 121.99-121.99 121.99H121.98C54.6 499.95-.01 445.33-.01 377.96V121.98C-.01 54.6 54.6-.01 121.98-.01Z"/><path fill="#FFF" d="M210.767 85.24c23.26-1.62 49.37 5 69.8 16.04 29.976 16.4 52.33 43.93 62.28 76.681 8.94 30.26 7.67 62.49-5.13 91.43 -4 9.04-12.04 16.71-8.79 27.15 .83 2.61 2.25 4.99 4.16 6.95 7.91 8.03 16.7 2.67 25.72 7.97 5.76 3.38 10.26 8.56 14.95 13.27l15.28 15.31 10.93 10.89c2.46 2.45 5.42 5.27 7.55 7.94 2.77 3.42 4.86 7.35 6.13 11.57 1.66 5.38 1.7 12.33.39 17.89 -5.7 24.17-35.15 34.81-54.74 19.4 -4.92-3.87-9.21-8.75-13.71-13.23 -6.04-5.91-12.03-11.86-17.98-17.84 -10.29-10.63-18.93-15.36-18.4-31.93 .42-12.38-14.96-21.5-25.12-15.28 -47.61 29.14-114.02 24.34-156.228-14.9 -86.13-80.07-34.55-221.67 82.84-229.4Zm14.09 218.97c47.97-4.3 83.37-46.78 79.07-94.86 -4.31-48.09-46.7-83.57-94.67-79.23 -47.94 4.33-83.29 46.79-78.99 94.85 4.3 48.05 46.64 83.52 94.578 79.22Z"/></g></svg>
